<svg xmlns="http://www.w3.org/2000/svg" viewBox="0 0 480 480"><path d="M376 48v-8c0-22-18-40-40-40H144c-22 0-40 18-40 40v8a24 24 0 100 48h16.3l6.4 152.3a7.9 7.9 0 00-6.7 7.7v64a8 8 0 008 8h2l5.4 129c.4 12.9 11 23 24 23h161.2a23.9 23.9 0 0024-23l5.4-129h2a8 8 0 008-8v-64c0-3.8-2.8-7.1-6.6-7.7L359.7 96H376a24 24 0 100-48zm-256-8a24 24 0 0124-24h192a24 24 0 0124 24v8H120v-8zm208.6 416.3a8 8 0 01-8 7.7H159.4a8 8 0 01-8-7.7L146 328h188l-5.4 128.3zM344 312H136v-48h208v48zM136.3 96h207.4l-6.3 152H142.7l-6.4-152zM376 80H104a8 8 0 010-16h272a8 8 0 010 16z"/></svg>