<svg viewBox="0 0 512.1 512.1" xmlns="http://www.w3.org/2000/svg"><path d="M483.7 52c-1.8-3-5-5-8.6-5h-48.2L402.7 5a10 10 0 00-8.7-5h-54a10 10 0 00-8.7 5l-22.2 38.5-17.4-9.2a30 30 0 10-9.3 17.7l23.4 12.4 25.6 43.7c1.8 3 5 5 8.6 5h48.2l21.1 37.5-20.1 30.3a30 30 0 105.7 56.2l20 20A30 30 0 10429 243l-20-20a29.9 29.9 0 00-3.1-31l20.5-31H475c3.6 0 6.9-1.9 8.6-5l27-47.4a10 10 0 000-10zM262 40a10 10 0 110-20 10 10 0 010 20zm62.6 16.8L345.8 20h42.5l21.2 37-21.2 36h-42.6zM372 210a10 10 0 1120 0 10 10 0 01-20 0zm80 60a10 10 0 11-20 0 10 10 0 0120 0zm17.3-129h-42.4l-21.3-37.8L426.8 67h42.5l21.2 36.7zM193 206a10 10 0 00-8.2 4.4c-6.6 9.4-21.8 32.9-21.8 45.6a30 30 0 0060 0c0-12.7-15.2-36.2-21.8-45.6a10 10 0 00-8.2-4.4zm0 60a10 10 0 01-10-10c0-3 4.2-11.7 10-21.4 5.8 9.7 10 18.4 10 21.4a10 10 0 01-10 10z"/><circle cx="193" cy="502" r="10"/><path d="M266 233.6V146h10a10 10 0 0010-10V96a10 10 0 00-10-10H110a10 10 0 00-10 10v40a10 10 0 0010 10h10v87.6L4.7 453a40 40 0 0035.3 59h108a10 10 0 000-20H40a20 20 0 01-17.6-29.5L83.6 346h218.8l61.2 116.6A20 20 0 01346 492H238a10 10 0 000 20h108a40 40 0 0035.3-59zM120 106h146v20H120zM94 326l44.9-85.3a10 10 0 001.1-4.7v-90h106v90c0 1.7.4 3.3 1.1 4.7L292 326z"/></svg>