<svg xmlns="http://www.w3.org/2000/svg" viewBox="0 0 512 512"><path d="M512 304c0-12.8-5.1-24.8-13.9-33.6a53 53 0 0013.7-40.7 55.1 55.1 0 00-55.7-48.4H324.4c6.5-19.8 17-56.1 17-85.3 0-46.3-39.4-85.3-64-85.3-22.2 0-38 12.4-38.7 13-2.6 2-4 5-4 8.3v72.3l-61.5 133.1-2.5 1.3v-4c0-6-4.8-10.7-10.7-10.7H53.3C24 224 0 248 0 277.3V448c0 29.4 24 53.3 53.3 53.3h64c23 0 42.8-14.7 50.2-35.2A139 139 0 00224 480h195.8a49 49 0 0048.4-37.2c2.4-11.2 1-22.4-3.9-32.1a47.8 47.8 0 0021.4-64A47.8 47.8 0 00512 304zm-45 26.3a10.7 10.7 0 00-6.1 18.4 26.3 26.3 0 01-15.2 45.6 10.7 10.7 0 00-6.1 18.4c7 6.6 9.8 15.9 7.7 25.4-2.6 12-14.2 20.6-27.5 20.6H224c-17.3 0-46.4-8.2-56.4-18.3-3.1-3-7.7-3.9-11.7-2.3-4 1.7-6.6 5.6-6.6 9.9a32 32 0 01-32 32h-64a32 32 0 01-32-32V277.3a32 32 0 0132-32h96V256c0 3.7 2 7.1 5.1 9 3.1 2 7 2.2 10.4.5L186 255c2.2-1.1 3.9-2.9 5-5L255 111c.6-1.4.9-2.9.9-4.4v-69a45 45 0 0121.3-5.7C289 32 320 61 320 96c0 37.5-20.4 91.7-20.6 92.2-1.3 3.3-.8 7 1.1 9.9 2 2.8 5.3 4.6 8.8 4.6h146.8c17.8 0 33 12.7 34.4 29a31.9 31.9 0 01-15.2 30.1 10.7 10.7 0 00.8 18.6 26.4 26.4 0 01-9 50z"/><path d="M160 245.3c-5.9 0-10.7 4.8-10.7 10.7v192a10.7 10.7 0 0021.4 0V256c0-5.9-4.8-10.7-10.7-10.7z"/></svg>