<svg viewBox="-15 -15 484 484" xmlns="http://www.w3.org/2000/svg"><path d="M401.6 18.2a62.5 62.5 0 00-88.2 0l-22.1 22.3L56 275.6l-.5.5c-.1.1-.1.3-.3.3l-.8 1c0 .2-.2.2-.2.3-.2.4-.3.7-.6 1l-.2.4-.4 1-.1.3-52.2 157c-1.6 4.4-.4 9.3 3 12.7a12.6 12.6 0 0012.8 3l156.9-52.4h.2l1.1-.6.3-.1 1.2-.8 1.2-.8c0-.2.2-.2.2-.3.1-.1.4-.2.5-.5l257.4-257.4a62.5 62.5 0 000-88.3zM169.4 371.4l-87-87L300 67l87 87zm-99.2-63.8l76 75.9-114 38zM418 122.8L404.6 136l-86.9-86.9 13.4-13.4a37.5 37.5 0 0153 0l33.9 34a37.6 37.6 0 01-.1 53zm0 0"/></svg>