<svg viewBox="-62 0 512 512" xmlns="http://www.w3.org/2000/svg"><path d="M61 278.2c.6-1.6 7-26.2 7.4-27.9-10-15-21-64.4-12.6-104.4C65 87.2 127.3 58.3 186 58.3c73.6 0 128.7 40.9 128.7 111.4 0 55.2-33.1 128.1-90 128.1-20.2 0-45.9-9.2-52.6-18.2a40.3 40.3 0 01-5.6-37c10.1-32 23-70.5 24.4-96 1.4-24.3-15.8-40-38-40-16.8 0-38.5 9.7-49.4 37-9 22.8-8.7 46.5.6 72.7 3.7 10.3-16.1 77-22.5 98.7C66 369 44.3 437.4 49 475.4l4.5 36.6 22.3-29.3c31-40.5 63-145.3 71.5-170.8 25.2 32.6 77.7 33.5 83.8 33.5 75.2 0 160.5-74.6 158-178.5C387 75.8 320.4 0 200.5 0v.1C86.4.1 20 61 3.6 137.8-11.3 209.1 22 263.3 61 278.2zm0 0"/></svg>