<svg xmlns="http://www.w3.org/2000/svg" viewBox="0 0 479.4 479.4"><path d="M239.4 0A240 240 0 0059 81.8 240 240 0 00420 398.3 240 240 0 00239.5 0zm-161 84.3l4-3.8 4.4-4.4 4.1-3.7 4.7-4 4.2-3.5a187.4 187.4 0 019.3-7l5-3.4a214.1 214.1 0 0140.7-21.8 222 222 0 015-2l5.9-2a248.5 248.5 0 0111-3.6l5-1.5 2-.4a198.5 198.5 0 00-51.1 83c-19-5-37.4-12-54.8-21.1l.7-.8zM67 97.2a278 278 0 0060.7 24.1A415.1 415.1 0 00111.6 232h-96A223.5 223.5 0 0167 97.2zm0 285.7A223.5 223.5 0 0115.6 248h96a415 415 0 0016.1 110.7A278.1 278.1 0 0067 382.9zm114.7 73.5l-5-1.4-6-1.8-5-1.7a190.6 190.6 0 01-27-11.5l-4.8-2.4A223.1 223.1 0 01109 422l-4.4-3.2-4.9-3.8-4.2-3.4-4.7-4.1-4-3.7-4.5-4.3-3.9-3.9-.7-.7c17.5-9 35.9-16.1 54.9-21.1 9.8 31.5 27.4 60 51 83l-1.9-.5zm49.7 7c-34.2-4.9-64.2-40.6-83-93.4 27.2-6 55-9.4 83-9.7v103zm0-119.1c-29.6.3-59.2 3.9-88.1 10.5A400.2 400.2 0 01127.6 248h103.8v96.3zm0-112.3H127.6c.4-36.1 5.7-72 15.7-106.7 29 6.6 58.5 10.1 88.1 10.5V232zm0-112.2c-28-.4-55.8-3.7-83-9.8 18.8-52.8 48.8-88.5 83-93.3v103zM412 97.2c31.6 38 49.6 85.4 51.4 134.8h-96a415 415 0 00-16.1-110.7 278.2 278.2 0 0060.7-24.1zM297.1 23.6l5 1.4 6 1.9c1.8.5 3.4 1.1 5 1.7A190.6 190.6 0 01340.3 40a151.8 151.8 0 0114.9 8.2 195.6 195.6 0 0119.2 13 218 218 0 014.9 3.8c1.4 1 2.8 2.2 4.2 3.4l4.7 4 4 3.7 4.5 4.4 3.9 3.8.7.7c-17.5 9-35.9 16.1-54.9 21.1-9.9-31.5-27.4-60-51.1-83l1.9.5zm-49.7-7c34.3 5 64.3 40.6 83.2 93.4a406.6 406.6 0 01-83.2 9.8V16.7zm0 119.2c29.7-.4 59.3-4 88.2-10.5 10 34.7 15.3 70.6 15.7 106.7H247.4v-96.2zm0 112.2h104c-.5 36.1-5.8 72-15.8 106.8-29-6.6-58.5-10.2-88.2-10.5V248zm0 215.4V360.3c28 .3 55.9 3.6 83.2 9.7-19 52.8-49 88.5-83.2 93.4zm153-67.7l-3.9 3.9-4.5 4.3-4 3.7-4.7 4-4.2 3.5a187.4 187.4 0 01-9.3 7l-5 3.5a187 187 0 01-9.8 6.2l-4.7 2.7a238.2 238.2 0 01-26.2 12.8l-5 2a198.4 198.4 0 01-22 7c-.6.3-1.3.4-2 .6 23.8-23 41.3-51.6 51.2-83 19 5 37.4 12 54.8 21l-.7.8zm11.5-12.8a278 278 0 00-60.7-24.2c10.3-36 15.8-73.2 16.1-110.7h96A223.5 223.5 0 01411.9 383z"/></svg>